<svg width="19" height="32" viewBox="0 0 19 32" fill="none" xmlns="http://www.w3.org/2000/svg">
<path d="M17.1875 5.5H12.0625C11.119 5.5 10.3542 6.28351 10.3542 7.25V12.5H17.1875C17.3817 12.4956 17.5661 12.5882 17.6816 12.7483C17.797 12.9085 17.8295 13.116 17.7683 13.305L16.5042 17.155C16.3877 17.5083 16.0653 17.7472 15.7013 17.75H10.3542V30.875C10.3542 31.3582 9.97167 31.75 9.5 31.75H5.22917C4.75743 31.75 4.375 31.3582 4.375 30.875V17.75H1.8125C1.34076 17.75 0.958336 17.3582 0.958336 16.875V13.375C0.958336 12.8918 1.34076 12.5 1.8125 12.5H4.375V7.25C4.375 3.384 7.43446 0.25 11.2083 0.25H17.1875C17.6592 0.25 18.0417 0.641755 18.0417 1.125V4.625C18.0417 5.10824 17.6592 5.5 17.1875 5.5Z" fill="black"/>
</svg>
