<svg width="31" height="32" viewBox="0 0 31 32" fill="none" xmlns="http://www.w3.org/2000/svg">
<path d="M30.875 15.6324C30.875 22.8949 27.0996 31.7499 15.7221 31.7499C7.17119 31.808 0.19079 24.7592 0.124985 15.9999C0.19079 7.24051 7.17119 0.191665 15.7221 0.24987C19.2595 0.26331 22.6895 1.49617 25.4596 3.74987C25.6509 3.91005 25.7686 4.14469 25.7842 4.39737C25.7852 4.65303 25.6868 4.89859 25.5108 5.07987C24.3987 6.12147 23.3382 7.21951 22.3333 8.36987C22.041 8.69939 21.5512 8.745 21.2058 8.47487C19.6275 7.27836 17.7017 6.66183 15.7392 6.72487C10.6915 6.72487 6.59957 10.9166 6.59957 16.0874C6.59957 21.2582 10.6915 25.4499 15.7392 25.4499C20.8642 25.4499 23.0337 23.2099 24.1612 19.2374H16.3542C15.8825 19.2374 15.5 18.8456 15.5 18.3624V13.7249C15.5 13.2416 15.8825 12.8499 16.3542 12.8499H30.0208C30.4141 12.8473 30.7458 13.1494 30.7896 13.5499C30.853 14.2421 30.8815 14.9372 30.875 15.6324Z" fill="black"/>
</svg>
