<svg width="34" height="35" viewBox="0 0 34 35" fill="none" xmlns="http://www.w3.org/2000/svg">
<path fill-rule="evenodd" clip-rule="evenodd" d="M24.3334 0.625H9.66669C4.60409 0.625 0.500023 4.82234 0.500023 10V25C0.500023 30.1776 4.60409 34.375 9.66669 34.375H24.3334C29.3959 34.375 33.5 30.1776 33.5 25V10C33.5 4.82234 29.3959 0.625 24.3334 0.625ZM30.2917 25C30.2816 28.3611 27.6198 31.0834 24.3334 31.0938H9.66669C6.38016 31.0834 3.71842 28.3611 3.70836 25V10C3.71842 6.63878 6.38016 3.91654 9.66669 3.90625H24.3334C27.6198 3.91654 30.2816 6.63878 30.2917 10V25ZM25.7084 10.4688C26.7209 10.4688 27.5417 9.62928 27.5417 8.59375C27.5417 7.55823 26.7209 6.71875 25.7084 6.71875C24.6958 6.71875 23.875 7.55823 23.875 8.59375C23.875 9.62928 24.6958 10.4688 25.7084 10.4688ZM17 9.0625C12.4437 9.0625 8.75002 12.8401 8.75002 17.5C8.75002 22.1599 12.4437 25.9375 17 25.9375C21.5564 25.9375 25.25 22.1599 25.25 17.5C25.255 15.2607 24.3873 13.1117 22.839 11.5283C21.2908 9.94486 19.1896 9.05751 17 9.0625ZM11.9584 17.5C11.9584 20.3477 14.2156 22.6562 17 22.6562C19.7845 22.6562 22.0417 20.3477 22.0417 17.5C22.0417 14.6523 19.7845 12.3438 17 12.3438C14.2156 12.3438 11.9584 14.6523 11.9584 17.5Z" fill="black"/>
</svg>
