<svg width="31" height="28" viewBox="0 0 31 28" fill="none" xmlns="http://www.w3.org/2000/svg">
<path d="M30.8285 4.75545C30.0352 5.83961 29.0761 6.78533 27.9884 7.55608C27.9884 7.83929 27.9884 8.12249 27.9884 8.42144C27.9971 13.5644 25.9917 18.4959 22.4218 22.1104C18.8517 25.7248 14.0158 27.7198 8.99814 27.6481C6.09728 27.6581 3.23357 26.9796 0.631352 25.6657C0.49103 25.6028 0.400539 25.4608 0.401069 25.3038V25.1307C0.401069 24.9048 0.579778 24.7217 0.800221 24.7217C3.65169 24.6253 6.40142 23.6126 8.66038 21.8267C6.07941 21.7733 3.75721 20.2071 2.68849 17.7987C2.63453 17.6673 2.65132 17.5163 2.73286 17.4006C2.81438 17.2849 2.94884 17.2212 3.08765 17.2324C3.87206 17.3131 4.66432 17.2384 5.42114 17.0121C2.57197 16.4063 0.431118 13.9832 0.124729 11.0175C0.113847 10.8752 0.176081 10.7375 0.288968 10.6538C0.401837 10.5704 0.549045 10.553 0.677409 10.6085C1.44199 10.9541 2.26737 11.1361 3.103 11.1433C0.606444 9.46481 -0.471907 6.27209 0.477824 3.37089C0.575865 3.08898 0.811393 2.88071 1.09786 2.82265C1.38432 2.76457 1.67948 2.86524 1.87485 3.08769C5.2438 6.76069 9.87279 8.94943 14.7857 9.19239C14.66 8.67799 14.5981 8.14933 14.6016 7.61901C14.6475 4.83826 16.3271 2.36112 18.8541 1.34728C21.3809 0.333448 24.255 0.983556 26.1309 2.99327C27.4094 2.74374 28.6456 2.30379 29.7999 1.68737C29.8845 1.6333 29.9918 1.6333 30.0763 1.68737C30.1291 1.77403 30.1291 1.88391 30.0763 1.97057C29.5172 3.28216 28.5726 4.38221 27.3744 5.11734C28.4237 4.99268 29.4545 4.73913 30.4448 4.36212C30.5282 4.30399 30.6377 4.30399 30.721 4.36212C30.7909 4.39485 30.8432 4.45745 30.8639 4.53324C30.8845 4.60903 30.8715 4.69032 30.8285 4.75545Z" fill="black"/>
</svg>
