<svg width="110" height="101" viewBox="0 0 110 101" fill="none" xmlns="http://www.w3.org/2000/svg">
<path fill-rule="evenodd" clip-rule="evenodd" d="M23.7005 0.307936C22.7481 0.694738 21.8271 1.09821 20.937 1.51744C20.8334 1.56622 20.789 1.68972 20.8378 1.7933C20.8866 1.89687 21.0101 1.94128 21.1136 1.8925C21.9968 1.47655 22.9109 1.07609 23.8565 0.692047L23.7005 0.307936ZM15.9633 4.4587C15.902 4.362 15.7739 4.33328 15.6772 4.39455C13.9154 5.5109 12.3138 6.70148 10.8665 7.95508C10.7799 8.03003 10.7705 8.16094 10.8455 8.24748C10.9204 8.33402 11.0514 8.3434 11.1379 8.26845C12.569 7.02893 14.1539 5.85056 15.8991 4.74475C15.9958 4.68348 16.0246 4.55541 15.9633 4.4587ZM6.97752 12.222C6.88866 12.1499 6.75811 12.1634 6.68593 12.2522C5.38201 13.8574 4.2793 15.5312 3.36825 17.2555C3.31477 17.3568 3.35347 17.4822 3.4547 17.5356C3.55592 17.5891 3.68133 17.5504 3.73482 17.4492C4.63302 15.7492 5.72068 14.098 7.00772 12.5136C7.0799 12.4248 7.06638 12.2942 6.97752 12.222ZM1.38058 22.6819C1.27054 22.6503 1.15572 22.7139 1.12414 22.8239C0.56699 24.765 0.218893 26.7417 0.0676666 28.7317C0.0589872 28.8458 0.144498 28.9454 0.258651 28.9541C0.372804 28.9628 0.472376 28.8773 0.481055 28.7631C0.63021 26.8005 0.973465 24.8516 1.52263 22.9383C1.55422 22.8283 1.49062 22.7135 1.38058 22.6819ZM0.375821 34.5015C0.262099 34.5147 0.180584 34.6175 0.193764 34.7313C0.422591 36.7063 0.832506 38.6722 1.41158 40.6075C1.4444 40.7172 1.55992 40.7795 1.6696 40.7467C1.77927 40.7139 1.84158 40.5983 1.80876 40.4887C1.23638 38.5758 0.831521 36.6336 0.60559 34.6835C0.59241 34.5698 0.489544 34.4883 0.375821 34.5015ZM3.68915 45.9176C3.58615 45.9676 3.54315 46.0916 3.59311 46.1946C4.45704 47.9756 5.4663 49.7091 6.61043 51.3758C6.67521 51.4702 6.80425 51.4942 6.89864 51.4294C6.99303 51.3646 7.01702 51.2356 6.95222 51.1412C5.8196 49.4912 4.82083 47.7757 3.96613 46.0137C3.91616 45.9107 3.79215 45.8677 3.68915 45.9176ZM10.3615 55.7694C10.2773 55.847 10.2719 55.9781 10.3495 56.0623C11.6907 57.5183 13.1467 58.8959 14.7082 60.1783C14.7967 60.251 14.9273 60.2381 15 60.1497C15.0726 60.0612 15.0598 59.9306 14.9714 59.8579C13.4246 58.5877 11.9826 57.2233 10.6544 55.7814C10.5769 55.6972 10.4457 55.6919 10.3615 55.7694ZM26.85 53.4434C24.9642 53.9033 23.1307 54.5536 21.4403 55.4029C21.338 55.4543 21.2968 55.5789 21.3482 55.6812C21.3996 55.7835 21.5242 55.8248 21.6265 55.7734C23.2857 54.9397 25.0892 54.2995 26.9482 53.8461C27.0594 53.819 27.1276 53.7069 27.1005 53.5956C27.0733 53.4844 26.9612 53.4162 26.85 53.4434ZM32.3461 52.8439C32.3515 52.9583 32.4486 53.0466 32.5629 53.0412C34.5223 52.9482 36.4419 53.0507 38.2203 53.3391C38.3333 53.3575 38.4397 53.2807 38.4581 53.1677C38.4764 53.0547 38.3996 52.9482 38.2866 52.9299C36.4778 52.6365 34.5292 52.5328 32.5433 52.6271C32.4289 52.6325 32.3406 52.7296 32.3461 52.8439ZM17.0204 58.717C16.9401 58.6354 16.8088 58.6344 16.7273 58.7147C15.351 60.0699 14.2435 61.6614 13.5168 63.4989C13.4747 63.6053 13.5268 63.7258 13.6333 63.7679C13.7398 63.81 13.8602 63.7578 13.9023 63.6514C14.6057 61.873 15.6787 60.329 17.0181 59.0102C17.0997 58.9298 17.1007 58.7986 17.0204 58.717ZM43.5037 54.7508C43.4503 54.8521 43.4891 54.9775 43.5904 55.0309C44.4715 55.4957 45.2351 56.036 45.8543 56.6475C46.6872 57.4702 47.302 58.2547 47.7303 58.9982C47.7874 59.0974 47.9142 59.1315 48.0134 59.0744C48.1126 59.0172 48.1467 58.8905 48.0895 58.7913C47.6389 58.009 46.9991 57.1955 46.1456 56.3525C45.4925 55.7074 44.694 55.1443 43.7838 54.6642C43.6825 54.6108 43.5572 54.6495 43.5037 54.7508ZM19.523 63.3709C19.4631 63.4685 19.4937 63.5961 19.5912 63.656C21.2759 64.6898 23.0493 65.6211 24.9032 66.4353C25.008 66.4813 25.1303 66.4337 25.1763 66.3289C25.2223 66.224 25.1747 66.1017 25.0699 66.0557C23.2334 65.2492 21.4768 64.3266 19.8081 63.3027C19.7105 63.2428 19.5828 63.2733 19.523 63.3709ZM12.7662 68.9598C12.6517 68.9631 12.5616 69.0585 12.5649 69.1729C12.6146 70.918 12.9441 72.8056 13.5991 74.8393C13.6342 74.9483 13.751 75.0082 13.8599 74.9731C13.9689 74.938 14.0288 74.8212 13.9937 74.7122C13.3492 72.7111 13.0278 70.8623 12.9793 69.1611C12.976 69.0467 12.8806 68.9565 12.7662 68.9598ZM30.4021 68.2116C30.3707 68.3217 30.4344 68.4364 30.5445 68.4678C31.499 68.7403 32.47 68.9828 33.4565 69.1939C34.3499 69.385 35.4169 69.4465 36.5632 69.3894C36.6775 69.3837 36.7656 69.2864 36.7599 69.172C36.7542 69.0577 36.6569 68.9696 36.5425 68.9753C35.421 69.0312 34.3917 68.97 33.5433 68.7885C32.5658 68.5794 31.6039 68.3391 30.6583 68.0692C30.5482 68.0378 30.4335 68.1015 30.4021 68.2116ZM47.7623 64.4628C47.6725 64.3918 47.5421 64.4069 47.4711 64.4967C46.3809 65.8736 44.5483 66.9742 42.4745 67.7434C42.3672 67.7832 42.3125 67.9025 42.3523 68.0099C42.3921 68.1172 42.5114 68.1719 42.6187 68.1321C44.7271 67.35 46.6394 66.215 47.7961 64.754C47.8672 64.6643 47.852 64.5339 47.7623 64.4628ZM15.9661 79.8381C15.8652 79.8921 15.8271 80.0177 15.8812 80.1187C16.3152 80.9298 16.7954 81.76 17.3239 82.6095C17.848 83.452 18.4161 84.2802 19.0263 85.0908C19.0952 85.1823 19.2251 85.2006 19.3166 85.1317C19.4081 85.0629 19.4264 84.9329 19.3575 84.8415C18.7545 84.0405 18.1935 83.2224 17.6759 82.3905C17.1519 81.5482 16.6762 80.7258 16.2467 79.9231C16.1927 79.8221 16.0671 79.7841 15.9661 79.8381ZM23.0317 89.2873C22.9528 89.3703 22.9562 89.5015 23.0392 89.5804C24.4657 90.9348 26.0269 92.2051 27.7122 93.3687C27.8064 93.4337 27.9355 93.4101 28.0005 93.3159C28.0656 93.2217 28.0419 93.0926 27.9477 93.0275C26.28 91.8761 24.7355 90.6193 23.3247 89.2797C23.2417 89.2009 23.1105 89.2043 23.0317 89.2873ZM109.288 68.9785C109.281 68.8642 109.182 68.7773 109.068 68.7843L107.206 68.8983C107.092 68.9053 107.005 69.0036 107.012 69.1178C107.019 69.2321 107.117 69.3191 107.231 69.3121L108.593 69.2287C108.028 69.8631 107.463 70.4861 106.9 71.0981C106.822 71.1823 106.827 71.3135 106.912 71.391C106.996 71.4686 107.127 71.4632 107.204 71.3791C107.771 70.7646 108.337 70.139 108.904 69.5022L108.988 70.866C108.995 70.9802 109.093 71.0672 109.207 71.0602C109.322 71.0532 109.409 70.9549 109.402 70.8406L109.288 68.9785ZM103.049 75.4086C102.969 75.3274 102.837 75.3271 102.756 75.4079C101.308 76.8498 99.8637 78.2198 98.4255 79.5204C98.3406 79.5972 98.334 79.7283 98.4108 79.8132C98.4876 79.8981 98.6187 79.9047 98.7036 79.8279C100.147 78.5228 101.596 77.1482 103.049 75.7017C103.13 75.621 103.13 75.4897 103.049 75.4086ZM32.8102 96.1304C32.7598 96.2332 32.8023 96.3574 32.9051 96.4077C34.6719 97.2734 36.5358 98.0299 38.4883 98.6595C38.5973 98.6946 38.7141 98.6347 38.7492 98.5258C38.7844 98.4168 38.7245 98.3 38.6156 98.2649C36.682 97.6414 34.8365 96.8924 33.0876 96.0354C32.9847 95.9851 32.8606 96.0276 32.8102 96.1304ZM94.193 83.4315C94.1208 83.3426 93.9903 83.3291 93.9014 83.4012C92.3038 84.6981 90.7148 85.9107 89.1359 87.0424C89.0429 87.1091 89.0215 87.2386 89.0882 87.3316C89.1549 87.4247 89.2844 87.446 89.3774 87.3793C90.9632 86.2427 92.5588 85.0251 94.1627 83.7231C94.2516 83.6509 94.2651 83.5204 94.193 83.4315ZM44.1582 99.8621C44.1385 99.9749 44.2138 100.082 44.3266 100.102C46.2544 100.44 48.2492 100.658 50.3047 100.744C50.4191 100.749 50.5157 100.66 50.5204 100.546C50.5252 100.431 50.4363 100.335 50.322 100.33C48.2846 100.245 46.308 100.029 44.3982 99.6937C44.2854 99.674 44.178 99.7493 44.1582 99.8621ZM84.451 90.43C84.3907 90.3327 84.263 90.3027 84.1657 90.363C82.424 91.4424 80.6971 92.4247 78.9872 93.3144C78.8856 93.3673 78.8461 93.4924 78.899 93.594C78.9518 93.6956 79.077 93.735 79.1786 93.6822C80.8979 92.7875 82.6338 91.8001 84.3841 90.7154C84.4814 90.6551 84.5114 90.5273 84.451 90.43ZM56.0937 100.428C56.1031 100.542 56.2032 100.627 56.3173 100.617C58.2609 100.457 60.2483 100.179 62.2752 99.7744C62.3874 99.752 62.4603 99.6428 62.4379 99.5306C62.4155 99.4183 62.3063 99.3455 62.194 99.3679C60.1825 99.7694 58.2107 100.045 56.2832 100.204C56.1691 100.213 56.0843 100.313 56.0937 100.428ZM73.8413 95.9653C73.7972 95.8596 73.6758 95.8097 73.5701 95.8538C71.6758 96.6443 69.8062 97.3223 67.9645 97.8945C67.8551 97.9285 67.794 98.0447 67.828 98.154C67.862 98.2633 67.9781 98.3244 68.0875 98.2904C69.9419 97.7143 71.8237 97.0318 73.7298 96.2364C73.8354 96.1923 73.8853 96.071 73.8413 95.9653Z" fill="#1E1E1E"/>
</svg>
