<svg width="245" height="151" viewBox="0 0 245 151" fill="none" xmlns="http://www.w3.org/2000/svg">
<path fill-rule="evenodd" clip-rule="evenodd" d="M131 0.65451C129.273 0.654511 127.568 0.661076 125.882 0.674104C125.691 0.675579 125.538 0.831449 125.539 1.02225C125.541 1.21305 125.697 1.36653 125.887 1.36505C127.571 1.35204 129.275 1.34548 131 1.34548V0.65451ZM116.367 1.1661C116.363 0.975349 116.204 0.824422 116.014 0.828996C112.571 0.911524 109.221 1.02285 105.962 1.16196C105.771 1.1701 105.623 1.33123 105.631 1.52186C105.639 1.71249 105.801 1.86043 105.991 1.8523C109.246 1.71338 112.592 1.60219 116.03 1.51976C116.221 1.51519 116.372 1.35685 116.367 1.1661ZM96.4338 2.0088C96.4217 1.81838 96.2575 1.67385 96.0671 1.68599C92.677 1.90206 89.3945 2.15064 86.2169 2.43037C86.0268 2.4471 85.8863 2.61474 85.903 2.80482C85.9198 2.99489 86.0874 3.1354 86.2775 3.11867C89.4493 2.83945 92.7263 2.59129 96.111 2.37556C96.3015 2.36342 96.446 2.19922 96.4338 2.0088ZM76.6077 3.75401C76.5855 3.5645 76.4139 3.42886 76.2244 3.45106C72.7899 3.85329 69.4935 4.29567 66.3309 4.77604C66.1423 4.80469 66.0126 4.98085 66.0413 5.16949C66.0699 5.35813 66.2461 5.48783 66.4347 5.45917C69.5891 4.98005 72.8777 4.53871 76.3047 4.13733C76.4942 4.11514 76.6299 3.94352 76.6077 3.75401ZM56.9238 6.74146C56.8873 6.55417 56.7059 6.4319 56.5186 6.46837C53.0965 7.13465 49.8572 7.85144 46.7941 8.61515C46.609 8.66131 46.4963 8.84881 46.5425 9.03395C46.5887 9.21909 46.7762 9.33175 46.9613 9.28559C50.012 8.52498 53.2394 7.81076 56.6507 7.1466C56.838 7.11013 56.9602 6.92875 56.9238 6.74146ZM37.6444 11.558C37.5858 11.3764 37.3912 11.2766 37.2095 11.3352C33.8437 12.4201 30.7431 13.573 27.8943 14.7867C27.7188 14.8615 27.6371 15.0644 27.7119 15.2399C27.7867 15.4155 27.9896 15.4971 28.1651 15.4224C30.9929 14.2176 34.0737 13.072 37.4215 11.9928C37.6031 11.9343 37.7029 11.7396 37.6444 11.558ZM19.4364 19.3746C19.3395 19.2103 19.1277 19.1556 18.9634 19.2525C15.8373 21.096 13.153 23.0393 10.8766 25.0646C10.7341 25.1914 10.7213 25.4098 10.8482 25.5523C10.975 25.6949 11.1934 25.7076 11.3359 25.5808C13.5748 23.5888 16.222 21.6713 19.3143 19.8477C19.4787 19.7508 19.5334 19.539 19.4364 19.3746ZM4.85896 32.5694C4.69623 32.4698 4.48354 32.5209 4.38391 32.6836C2.52682 35.7171 1.37408 38.8619 0.834152 42.0672C0.802444 42.2553 0.929291 42.4335 1.11745 42.4652C1.3056 42.4969 1.48383 42.3701 1.51552 42.1819C2.04063 39.0647 3.16179 36.0033 4.97322 33.0444C5.07285 32.8817 5.02168 32.669 4.85896 32.5694ZM1.2852 51.6755C1.09773 51.7111 0.974625 51.8919 1.01019 52.0794C1.61382 55.2594 2.70465 58.442 4.19286 61.5813C4.27458 61.7537 4.48062 61.8272 4.65303 61.7455C4.82544 61.6637 4.89896 61.4577 4.81721 61.2853C3.35014 58.1906 2.28006 55.0641 1.68904 51.9505C1.65346 51.7631 1.47266 51.6399 1.2852 51.6755ZM9.37413 69.6942C9.21866 69.8048 9.18228 70.0205 9.29289 70.176C11.1784 72.8261 13.3077 75.4134 15.6223 77.9077C15.7521 78.0476 15.9707 78.0557 16.1106 77.9259C16.2505 77.7961 16.2586 77.5775 16.1288 77.4377C13.8323 74.9629 11.7223 72.3987 9.85591 69.7754C9.7453 69.6199 9.5296 69.5836 9.37413 69.6942ZM48.9494 71.3274C45.4472 70.5539 41.6046 70.2044 37.6998 70.3438C37.5091 70.3506 37.36 70.5107 37.3668 70.7014C37.3736 70.8921 37.5337 71.0412 37.7244 71.0343C41.5735 70.8969 45.3576 71.2417 48.8004 72.0021C48.9867 72.0432 49.1711 71.9256 49.2122 71.7392C49.2534 71.5529 49.1357 71.3685 48.9494 71.3274ZM26.9859 72.3769C26.9309 72.1942 26.7382 72.0907 26.5555 72.1457C22.8984 73.2467 19.4252 74.8681 16.3929 77.0738C16.2386 77.186 16.2045 77.4021 16.3167 77.5564C16.429 77.7107 16.6451 77.7448 16.7994 77.6326C19.7595 75.4794 23.16 73.8895 26.7547 72.8074C26.9374 72.7523 27.0409 72.5596 26.9859 72.3769ZM58.8938 75.7416C58.7824 75.8966 58.8178 76.1124 58.9728 76.2237C60.5915 77.3864 61.8627 78.712 62.7004 80.1719C63.5336 81.6241 64.121 82.9943 64.4969 84.2813C64.5504 84.4645 64.7422 84.5696 64.9254 84.5161C65.1085 84.4626 65.2136 84.2708 65.1601 84.0876C64.767 82.7415 64.1563 81.3211 63.2997 79.8281C62.4022 78.2638 61.0552 76.8687 59.3759 75.6625C59.2209 75.5512 59.0051 75.5866 58.8938 75.7416ZM22.7672 84.3645C22.6417 84.5082 22.6564 84.7265 22.8002 84.852C25.3047 87.039 27.9283 89.1153 30.6201 91.0543C30.7749 91.1658 30.9908 91.1307 31.1024 90.9759C31.2139 90.821 31.1788 90.6051 31.024 90.4936C28.3491 88.5668 25.7425 86.504 23.2546 84.3315C23.1109 84.206 22.8927 84.2208 22.7672 84.3645ZM9.35091 85.3638C9.18375 85.2718 8.97365 85.3327 8.88162 85.4998C7.18556 88.5805 6.05733 92.1732 5.67653 96.317C5.65907 96.507 5.79893 96.6751 5.98895 96.6926C6.17896 96.7101 6.34714 96.5702 6.36459 96.3802C6.73717 92.3261 7.83913 88.8261 9.48692 85.8331C9.57895 85.6659 9.51805 85.4558 9.35091 85.3638ZM64.1031 92.7155C63.9398 92.6167 63.7274 92.669 63.6287 92.8323C62.1455 95.2845 59.6139 97.1024 56.7257 98.2318C56.548 98.3013 56.4603 98.5017 56.5298 98.6794C56.5993 98.8571 56.7997 98.9448 56.9774 98.8753C59.9618 97.7083 62.6361 95.8084 64.2199 93.1899C64.3187 93.0266 64.2664 92.8142 64.1031 92.7155ZM38.8531 96.0341C38.7564 96.1986 38.8114 96.4103 38.9759 96.507C40.4281 97.3606 41.8853 98.1695 43.34 98.9298C44.6305 99.6043 46.179 100.018 47.8424 100.186C48.0322 100.205 48.2016 100.067 48.2208 99.8767C48.24 99.6868 48.1017 99.5174 47.9118 99.4982C46.3143 99.3368 44.8553 98.9421 43.6601 98.3174C42.2157 97.5625 40.7686 96.7592 39.326 95.9113C39.1615 95.8146 38.9498 95.8696 38.8531 96.0341ZM6.60851 107.173C6.42101 107.208 6.29771 107.389 6.33311 107.576C6.66704 109.345 7.10963 111.185 7.66841 113.097C8.14111 114.715 8.91785 116.305 9.97209 117.861C10.0791 118.019 10.2939 118.061 10.4519 117.954C10.6098 117.847 10.6512 117.632 10.5442 117.474C9.52393 115.968 8.7813 114.442 8.33165 112.903C7.77878 111.011 7.34157 109.193 7.01208 107.448C6.97668 107.261 6.79599 107.137 6.60851 107.173ZM244.837 122.575C244.879 122.388 244.761 122.204 244.575 122.163L241.539 121.49C241.353 121.448 241.168 121.566 241.127 121.752C241.086 121.939 241.203 122.123 241.39 122.164L243.607 122.656C242.376 123.429 241.127 124.183 239.861 124.919C239.696 125.015 239.64 125.226 239.736 125.391C239.832 125.556 240.043 125.612 240.208 125.516C241.484 124.775 242.743 124.015 243.983 123.236L243.49 125.461C243.449 125.647 243.566 125.832 243.752 125.873C243.939 125.914 244.123 125.797 244.164 125.61L244.837 122.575ZM17.3917 124.872C17.2774 125.024 17.3086 125.241 17.4614 125.355C20.0302 127.276 23.0326 129.127 26.4164 130.892C26.5856 130.98 26.7943 130.915 26.8826 130.746C26.9708 130.576 26.9052 130.368 26.7361 130.279C23.3782 128.528 20.4085 126.696 17.8752 124.802C17.7224 124.687 17.5059 124.719 17.3917 124.872ZM231.083 129.988C230.999 129.816 230.793 129.744 230.621 129.828C227.509 131.337 224.316 132.752 221.051 134.075C220.874 134.147 220.789 134.349 220.86 134.525C220.932 134.702 221.133 134.787 221.31 134.716C224.589 133.387 227.796 131.966 230.923 130.449C231.094 130.366 231.166 130.159 231.083 129.988ZM35.7582 134.796C35.687 134.973 35.7728 135.174 35.9498 135.245C39.0555 136.494 42.3658 137.684 45.8573 138.81C46.0389 138.869 46.2336 138.769 46.2922 138.587C46.3507 138.406 46.251 138.211 46.0694 138.152C42.5918 137.031 39.2967 135.846 36.2076 134.604C36.0306 134.533 35.8294 134.618 35.7582 134.796ZM211.683 137.926C211.622 137.745 211.426 137.648 211.245 137.709C207.965 138.817 204.629 139.842 201.245 140.787C201.062 140.838 200.954 141.029 201.006 141.213C201.057 141.396 201.248 141.504 201.431 141.452C204.826 140.504 208.174 139.475 211.466 138.363C211.647 138.302 211.744 138.106 211.683 137.926ZM55.681 141.322C55.6324 141.507 55.7427 141.696 55.9273 141.744C59.2272 142.612 62.6475 143.425 66.1729 144.181C66.3594 144.221 66.5431 144.102 66.5831 143.916C66.623 143.729 66.5042 143.545 66.3177 143.505C62.8022 142.752 59.3922 141.941 56.1029 141.076C55.9184 141.027 55.7295 141.138 55.681 141.322ZM191.511 143.615C191.469 143.429 191.284 143.313 191.098 143.355C187.711 144.127 184.288 144.826 180.839 145.454C180.651 145.488 180.526 145.668 180.561 145.855C180.595 146.043 180.775 146.168 180.962 146.133C184.422 145.504 187.854 144.803 191.251 144.029C191.437 143.986 191.554 143.801 191.511 143.615ZM76.1901 145.77C76.1576 145.958 76.2837 146.137 76.4717 146.169C79.8563 146.754 83.3162 147.286 86.84 147.762C87.029 147.788 87.2031 147.656 87.2286 147.466C87.2542 147.277 87.1217 147.103 86.9326 147.078C83.417 146.602 79.9654 146.071 76.5893 145.488C76.4013 145.456 76.2225 145.582 76.1901 145.77ZM170.888 147.41C170.861 147.221 170.687 147.089 170.498 147.116C167.046 147.6 163.577 148.017 160.098 148.371C159.908 148.39 159.77 148.56 159.79 148.749C159.809 148.939 159.978 149.077 160.168 149.058C163.655 148.704 167.133 148.285 170.594 147.8C170.783 147.774 170.914 147.599 170.888 147.41ZM96.9592 148.611C96.9401 148.801 97.0785 148.971 97.2684 148.99C100.714 149.336 104.206 149.629 107.736 149.865C107.926 149.878 108.091 149.734 108.104 149.544C108.116 149.354 107.972 149.189 107.782 149.176C104.26 148.94 100.775 148.647 97.3374 148.302C97.1476 148.283 96.9782 148.421 96.9592 148.611ZM150.027 149.563C150.015 149.373 149.85 149.229 149.66 149.241C146.171 149.47 142.681 149.637 139.199 149.746C139.008 149.752 138.858 149.912 138.864 150.102C138.87 150.293 139.029 150.443 139.22 150.437C142.71 150.328 146.208 150.16 149.705 149.931C149.895 149.918 150.04 149.754 150.027 149.563ZM117.893 150.041C117.886 150.232 118.035 150.392 118.226 150.398C121.703 150.518 125.206 150.583 128.726 150.59C128.917 150.59 129.072 150.436 129.072 150.245C129.073 150.054 128.918 149.899 128.728 149.899C125.215 149.892 121.72 149.827 118.25 149.708C118.059 149.701 117.899 149.85 117.893 150.041Z" fill="#1E1E1E"/>
</svg>
