<svg width="358" height="236" viewBox="0 0 358 236" fill="none" xmlns="http://www.w3.org/2000/svg">
<path fill-rule="evenodd" clip-rule="evenodd" d="M237 0.945557C234.161 0.945557 231.354 0.957216 228.579 0.980346C228.273 0.982898 228.027 1.23318 228.029 1.53936C228.032 1.84555 228.282 2.09169 228.588 2.08914C231.36 2.06604 234.164 2.05439 237 2.05439V0.945557ZM212.884 1.79518C212.876 1.48908 212.622 1.24734 212.316 1.25524C206.648 1.40137 201.125 1.59836 195.744 1.84432C195.438 1.85831 195.202 2.1176 195.216 2.42348C195.23 2.72936 195.489 2.96598 195.795 2.952C201.168 2.70638 206.684 2.50966 212.344 2.3637C212.65 2.35581 212.892 2.10127 212.884 1.79518ZM179.987 3.28531C179.966 2.97982 179.702 2.74901 179.396 2.76978C173.835 3.14787 168.44 3.58216 163.208 4.07022C162.903 4.09866 162.679 4.36886 162.707 4.67373C162.736 4.9786 163.006 5.2027 163.311 5.17426C168.534 4.6871 173.919 4.25355 179.471 3.87606C179.777 3.85529 180.008 3.5908 179.987 3.28531ZM147.367 6.3274C147.33 6.0235 147.053 5.80749 146.749 5.84493C141.101 6.54071 135.665 7.30485 130.433 8.1336C130.131 8.18151 129.925 8.46551 129.973 8.76794C130.02 9.07036 130.304 9.27668 130.607 9.22877C135.825 8.40212 141.249 7.63974 146.885 6.94545C147.188 6.90801 147.404 6.6313 147.367 6.3274ZM114.912 11.4617C114.852 11.1615 114.559 10.967 114.259 11.0274C108.651 12.1539 103.315 13.3632 98.2416 14.6495C97.9448 14.7248 97.7652 15.0264 97.8404 15.3232C97.9157 15.62 98.2173 15.7996 98.5141 15.7244C103.568 14.4429 108.886 13.2376 114.477 12.1145C114.778 12.0542 114.972 11.7619 114.912 11.4617ZM83.1505 19.5199C83.0568 19.2283 82.7445 19.0679 82.453 19.1616C76.9505 20.9296 71.8237 22.8026 67.0559 24.7699C66.7729 24.8867 66.6381 25.2108 66.7549 25.4939C66.8717 25.7769 67.1958 25.9117 67.4789 25.7949C72.2171 23.8398 77.3157 21.9769 82.7922 20.2173C83.0837 20.1236 83.2441 19.8114 83.1505 19.5199ZM52.966 32.0225C52.8195 31.7537 52.4827 31.6545 52.2139 31.801C47.0128 34.6355 42.3922 37.611 38.315 40.7036C38.071 40.8887 38.0233 41.2365 38.2083 41.4804C38.3934 41.7244 38.7411 41.7721 38.9851 41.5871C43.0139 38.5311 47.5872 35.5852 52.7445 32.7746C53.0133 32.6281 53.1125 32.2914 52.966 32.0225ZM27.021 51.8697C26.7887 51.6702 26.4387 51.6967 26.2392 51.9289C22.3912 56.4077 19.4481 61.047 17.3204 65.787C17.195 66.0664 17.3199 66.3945 17.5992 66.5199C17.8785 66.6453 18.2066 66.5205 18.332 66.2411C20.4134 61.6041 23.2974 57.0545 27.0802 52.6515C27.2798 52.4193 27.2532 52.0692 27.021 51.8697ZM13.7412 81.2335C13.4363 81.2061 13.1668 81.4312 13.1395 81.7362C12.6469 87.2231 13.0595 92.7415 14.2403 98.2042C14.305 98.5035 14.6 98.6937 14.8993 98.629C15.1986 98.5643 15.3888 98.2693 15.3241 97.97C14.1647 92.6062 13.7623 87.2005 14.2439 81.8353C14.2712 81.5303 14.0462 81.2609 13.7412 81.2335ZM38.5577 109.195C38.5502 108.889 38.296 108.647 37.9899 108.654C31.8779 108.803 25.9765 109.785 20.729 111.802C20.4432 111.912 20.3006 112.233 20.4105 112.519C20.5203 112.804 20.8411 112.947 21.1269 112.837C26.2304 110.875 32.0014 109.909 38.0169 109.762C38.323 109.755 38.5651 109.501 38.5577 109.195ZM54.7902 110.712C54.7294 111.012 54.9234 111.305 55.2235 111.365C61.0218 112.54 66.6565 114.302 71.7513 116.485C72.0327 116.606 72.3586 116.476 72.4792 116.194C72.5999 115.913 72.4695 115.587 72.1881 115.466C67.0218 113.252 61.3143 111.468 55.4436 110.279C55.1436 110.218 54.851 110.412 54.7902 110.712ZM19.9384 113.04C19.6624 113.173 19.5463 113.504 19.6789 113.78C22.009 118.628 24.8775 123.362 28.1799 127.915C28.3596 128.163 28.7063 128.218 28.9542 128.038C29.2021 127.859 29.2573 127.512 29.0775 127.264C25.81 122.759 22.9768 118.082 20.6783 113.3C20.5457 113.024 20.2144 112.908 19.9384 113.04ZM7.39893 122.044C7.15295 121.861 6.80573 121.913 6.62338 122.159C3.43555 126.46 1.31769 131.89 0.639618 138.6C0.608826 138.905 0.830841 139.177 1.13547 139.208C1.44012 139.238 1.71204 139.016 1.74283 138.712C2.40314 132.178 4.45822 126.942 7.51419 122.819C7.6965 122.573 7.64493 122.226 7.39893 122.044ZM86.4424 124.559C86.2416 124.791 86.2664 125.141 86.4976 125.341C88.875 127.405 90.7539 129.571 92.0191 131.776C93.2128 133.856 94.1652 135.856 94.9016 137.77C95.0116 138.055 95.3324 138.198 95.6182 138.088C95.9039 137.978 96.0464 137.657 95.9365 137.371C95.178 135.4 94.2004 133.349 92.9809 131.224C91.6384 128.884 89.6688 126.626 87.2245 124.504C86.9933 124.303 86.6431 124.328 86.4424 124.559ZM38.8342 139.715C38.615 139.929 38.6104 140.28 38.8242 140.499C42.6331 144.407 46.7405 148.101 51.0605 151.526C51.3004 151.716 51.6491 151.676 51.8393 151.436C52.0296 151.196 51.9893 150.847 51.7494 150.657C47.4651 147.26 43.393 143.598 39.6182 139.725C39.4045 139.506 39.0535 139.501 38.8342 139.715ZM97.3676 150.188C97.0644 150.146 96.7845 150.358 96.7425 150.661C96.0782 155.464 93.7422 159.232 90.5946 161.803C90.3575 161.997 90.3222 162.346 90.5159 162.583C90.7096 162.82 91.0589 162.856 91.296 162.662C94.6534 159.92 97.137 155.902 97.8409 150.813C97.8828 150.51 97.671 150.23 97.3676 150.188ZM2.16681 155.436C1.8663 155.495 1.67032 155.786 1.7291 156.087C2.26074 158.805 2.95865 161.66 3.83395 164.655C4.60876 167.307 5.83301 169.95 7.46927 172.571C7.63144 172.831 7.97345 172.91 8.23318 172.748C8.49289 172.585 8.57199 172.243 8.40979 171.984C6.81897 169.436 5.64059 166.885 4.89828 164.344C4.03162 161.379 3.34195 158.557 2.81732 155.874C2.75854 155.573 2.46732 155.377 2.16681 155.436ZM64.3859 160.178C64.2268 160.44 64.3099 160.781 64.5716 160.94C66.9329 162.376 69.3271 163.729 71.7432 164.991C73.8258 166.08 76.0974 166.68 78.4023 166.828C78.7079 166.847 78.9714 166.616 78.991 166.31C79.0106 166.004 78.7787 165.741 78.4732 165.721C76.3132 165.583 74.1937 165.021 72.2568 164.009C69.8623 162.757 67.4889 161.416 65.1476 159.993C64.886 159.833 64.5449 159.917 64.3859 160.178ZM19.0324 184.792C18.8331 185.024 18.8601 185.374 19.0926 185.573C23.1305 189.034 27.8503 192.419 33.1699 195.692C33.4307 195.852 33.7721 195.771 33.9326 195.51C34.093 195.249 34.0116 194.908 33.7508 194.747C28.4714 191.5 23.8003 188.148 19.8142 184.731C19.5817 184.532 19.2317 184.559 19.0324 184.792ZM357.541 195.62C357.608 195.321 357.419 195.025 357.12 194.959L352.249 193.879C351.95 193.813 351.654 194.001 351.587 194.3C351.521 194.599 351.71 194.895 352.009 194.961L355.567 195.75C353.515 197.039 351.439 198.29 349.34 199.507C349.075 199.66 348.984 199.999 349.138 200.264C349.291 200.529 349.631 200.62 349.896 200.466C352.01 199.241 354.102 197.979 356.17 196.681L355.379 200.251C355.313 200.55 355.501 200.846 355.8 200.913C356.099 200.979 356.395 200.79 356.461 200.491L357.541 195.62ZM48.1771 203.247C48.0439 203.523 48.1594 203.854 48.435 203.988C53.3929 206.384 58.6799 208.692 64.2575 210.894C64.5423 211.006 64.8643 210.867 64.9768 210.582C65.0892 210.297 64.9495 209.975 64.6647 209.863C59.1105 207.67 53.8487 205.372 48.9175 202.989C48.6419 202.856 48.3104 202.971 48.1771 203.247ZM334.827 207.802C334.695 207.525 334.364 207.408 334.088 207.54C328.917 210.01 323.637 212.289 318.265 214.386C317.98 214.497 317.839 214.819 317.951 215.104C318.062 215.389 318.383 215.53 318.669 215.419C324.065 213.312 329.37 211.022 334.566 208.541C334.842 208.409 334.959 208.078 334.827 207.802ZM80.2259 216.061C80.1308 216.352 80.2896 216.666 80.5807 216.761C85.9175 218.505 91.4506 220.154 97.1539 221.697C97.4495 221.777 97.7539 221.602 97.8339 221.307C97.9138 221.011 97.7391 220.707 97.4435 220.627C91.7579 219.089 86.2431 217.444 80.9251 215.707C80.6341 215.612 80.321 215.77 80.2259 216.061ZM302.696 220.466C302.604 220.174 302.293 220.011 302.001 220.103C296.534 221.824 290.992 223.374 285.394 224.762C285.097 224.836 284.915 225.136 284.989 225.433C285.063 225.731 285.363 225.912 285.661 225.838C291.281 224.445 296.844 222.889 302.334 221.161C302.626 221.069 302.788 220.758 302.696 220.466ZM113.585 225.17C113.519 225.469 113.708 225.765 114.007 225.831C119.54 227.054 125.198 228.177 130.958 229.19C131.26 229.243 131.547 229.042 131.6 228.74C131.653 228.438 131.452 228.151 131.15 228.098C125.405 227.088 119.764 225.968 114.246 224.749C113.947 224.683 113.651 224.871 113.585 225.17ZM269.181 228.87C269.124 228.569 268.834 228.371 268.533 228.428C262.889 229.49 257.204 230.4 251.495 231.165C251.191 231.205 250.978 231.484 251.019 231.788C251.059 232.091 251.338 232.304 251.642 232.264C257.37 231.496 263.074 230.583 268.738 229.518C269.039 229.461 269.237 229.171 269.181 228.87ZM147.587 231.205C147.546 231.508 147.76 231.787 148.063 231.827C153.731 232.581 159.475 233.225 165.278 233.753C165.583 233.781 165.852 233.556 165.88 233.251C165.908 232.946 165.683 232.677 165.378 232.649C159.591 232.122 153.862 231.479 148.209 230.728C147.906 230.688 147.627 230.901 147.587 231.205ZM234.938 233.536C234.912 233.231 234.644 233.004 234.339 233.03C228.6 233.513 222.852 233.858 217.109 234.074C216.803 234.085 216.565 234.343 216.576 234.649C216.588 234.955 216.845 235.194 217.151 235.182C222.91 234.966 228.675 234.619 234.432 234.135C234.737 234.109 234.964 233.841 234.938 233.536ZM182.02 234.382C182.005 234.688 182.241 234.948 182.547 234.963C188.278 235.245 194.049 235.409 199.843 235.447C200.149 235.449 200.399 235.203 200.401 234.896C200.403 234.59 200.156 234.34 199.85 234.338C194.072 234.3 188.317 234.137 182.601 233.856C182.295 233.841 182.035 234.077 182.02 234.382Z" fill="#1E1E1E"/>
</svg>
