<svg width="223" height="155" viewBox="0 0 223 155" fill="none" xmlns="http://www.w3.org/2000/svg">
<path fill-rule="evenodd" clip-rule="evenodd" d="M115.844 0.666326C114.196 1.10915 112.57 1.55317 110.964 1.99832C110.78 2.04929 110.673 2.23968 110.723 2.42355C110.774 2.60742 110.965 2.71514 111.149 2.66417C112.752 2.21951 114.377 1.77597 116.023 1.33361L115.844 0.666326ZM102.004 4.91729C101.95 4.73429 101.758 4.62972 101.575 4.68373C98.299 5.65052 95.118 6.62196 92.0297 7.59745C91.8477 7.65491 91.7468 7.849 91.8043 8.03094C91.8618 8.21289 92.0558 8.3138 92.2378 8.25633C95.3218 7.2822 98.4986 6.31203 101.77 5.34644C101.953 5.29243 102.058 5.10029 102.004 4.91729ZM83.0557 10.8949C82.9943 10.7143 82.7981 10.6175 82.6175 10.6789C79.4092 11.7681 76.3119 12.8615 73.3228 13.9583C73.1436 14.024 73.0517 14.2225 73.1174 14.4017C73.1832 14.5808 73.3817 14.6727 73.5608 14.607C76.5444 13.5122 79.6364 12.4207 82.8396 11.3331C83.0203 11.2718 83.117 11.0756 83.0557 10.8949ZM64.5804 17.6681C64.5096 17.4909 64.3086 17.4046 64.1314 17.4754C60.9643 18.7403 57.9354 20.0085 55.0406 21.2788C54.8658 21.3554 54.7864 21.5592 54.863 21.734C54.9397 21.9087 55.1435 21.9882 55.3182 21.9115C58.2056 20.6445 61.2274 19.3793 64.3877 18.1171C64.5649 18.0463 64.6511 17.8453 64.5804 17.6681ZM46.5291 25.587C46.4454 25.4156 46.2385 25.3444 46.0671 25.4281C42.9489 26.9501 40.0154 28.4732 37.2594 29.9952C37.0924 30.0874 37.0318 30.2976 37.124 30.4646C37.2163 30.6317 37.4264 30.6923 37.5935 30.6001C40.3386 29.084 43.2617 27.5663 46.3702 26.0491C46.5416 25.9654 46.6128 25.7585 46.5291 25.587ZM29.1934 35.1691C29.0905 35.0084 28.8769 34.9615 28.7162 35.0643C25.7554 36.9593 23.0585 38.8491 20.6117 40.7298C20.4604 40.8461 20.432 41.063 20.5483 41.2143C20.6646 41.3656 20.8815 41.3939 21.0328 41.2777C23.4625 39.4101 26.143 37.5315 29.0886 35.6463C29.2494 35.5434 29.2963 35.3298 29.1934 35.1691ZM13.6027 47.2062C13.469 47.07 13.2503 47.068 13.1142 47.2017C10.5391 49.7303 8.39788 52.2342 6.65594 54.7031C6.54594 54.859 6.58317 55.0745 6.73907 55.1845C6.89498 55.2945 7.11054 55.2573 7.22054 55.1014C8.9357 52.6705 11.0491 50.198 13.5983 47.6947C13.7344 47.5611 13.7364 47.3423 13.6027 47.2062ZM2.46017 63.295C2.27998 63.2323 2.08305 63.3275 2.02031 63.5077C0.842528 66.8911 0.395285 70.1746 0.576459 73.3251C0.587415 73.5156 0.750709 73.6612 0.941208 73.6502C1.13169 73.6393 1.27723 73.476 1.26629 73.2855C1.09057 70.2297 1.52347 67.0367 2.67287 63.7349C2.7356 63.5547 2.64037 63.3577 2.46017 63.295ZM3.34038 82.4639C3.16957 82.5489 3.10003 82.7563 3.18505 82.9271C4.62106 85.812 6.59324 88.5125 8.98323 90.996C9.11554 91.1335 9.33425 91.1377 9.47173 91.0054C9.60922 90.8731 9.61341 90.6544 9.48111 90.5169C7.13246 88.0763 5.20394 85.4324 3.80362 82.6192C3.7186 82.4484 3.51119 82.3789 3.34038 82.4639ZM16.5427 96.8553C16.4365 97.0139 16.4789 97.2285 16.6375 97.3346C19.3174 99.1296 22.2363 100.738 25.318 102.14C25.4917 102.219 25.6966 102.142 25.7755 101.968C25.8545 101.794 25.7777 101.59 25.604 101.511C22.5537 100.124 19.6681 98.5329 17.022 96.7606C16.8634 96.6544 16.6489 96.6968 16.5427 96.8553ZM48.202 91.1904C48.1431 91.0089 47.9483 90.9094 47.7668 90.9683C44.1579 92.1388 40.7261 93.6549 37.704 95.5306C37.5419 95.6313 37.492 95.8443 37.5926 96.0064C37.6932 96.1685 37.9062 96.2183 38.0684 96.1177C41.0346 94.2767 44.4137 92.7822 47.98 91.6256C48.1615 91.5667 48.2609 91.3718 48.202 91.1904ZM58.2361 88.9176C58.2621 89.1067 58.4365 89.2388 58.6255 89.2127C62.3816 88.6946 66.0959 88.5146 69.5302 88.6601C69.7209 88.6682 69.8819 88.5202 69.89 88.3296C69.8981 88.1389 69.7501 87.9778 69.5595 87.9698C66.0814 87.8224 62.3257 88.0048 58.5311 88.5282C58.3421 88.5543 58.21 88.7286 58.2361 88.9176ZM30.0402 102.91C29.8831 102.801 29.6679 102.841 29.5596 102.998C27.478 106.018 26.2423 109.512 26.1869 113.49C26.1842 113.681 26.3367 113.838 26.5275 113.84C26.7183 113.843 26.8751 113.691 26.8778 113.5C26.9311 109.668 28.1192 106.305 30.1285 103.39C30.2368 103.233 30.1973 103.018 30.0402 102.91ZM79.9897 90.095C79.9233 90.2739 80.0145 90.4727 80.1933 90.5391C82.129 91.2578 83.6827 92.1656 84.7552 93.2437C86.1386 94.6343 87.068 95.9866 87.5823 97.2697C87.6533 97.4468 87.8544 97.5328 88.0315 97.4618C88.2086 97.3908 88.2947 97.1897 88.2237 97.0126C87.6658 95.6209 86.6743 94.1931 85.245 92.7563C84.0788 91.5841 82.4265 90.6312 80.4338 89.8914C80.255 89.825 80.0561 89.9161 79.9897 90.095ZM34.3871 105.165C34.3332 105.348 34.4378 105.54 34.6208 105.594C36.2042 106.061 37.8082 106.476 39.4248 106.837C41.1307 107.218 42.7992 107.561 44.4292 107.869C44.6167 107.904 44.7973 107.781 44.8327 107.593C44.868 107.406 44.7447 107.225 44.5572 107.19C42.9349 106.884 41.2739 106.542 39.5754 106.163C37.9738 105.805 36.3847 105.394 34.8162 104.932C34.6332 104.878 34.4411 104.982 34.3871 105.165ZM54.1997 108.996C54.1792 109.186 54.3163 109.356 54.506 109.377C58.1594 109.772 61.5562 109.961 64.6783 109.968C64.8691 109.969 65.0241 109.814 65.0246 109.624C65.025 109.433 64.8707 109.278 64.6799 109.277C61.5843 109.27 58.2118 109.082 54.5803 108.69C54.3906 108.669 54.2202 108.806 54.1997 108.996ZM84.6821 105.49C84.5811 105.328 84.368 105.279 84.2061 105.38C81.974 106.773 78.8008 107.87 74.7554 108.541C74.5671 108.572 74.4398 108.75 74.4711 108.938C74.5023 109.127 74.6802 109.254 74.8684 109.223C78.9675 108.543 82.2367 107.423 84.5718 105.966C84.7337 105.865 84.7831 105.652 84.6821 105.49ZM28.7867 123.787C28.612 123.864 28.5327 124.068 28.6096 124.243C29.31 125.835 30.1713 127.48 31.2049 129.18C32.0503 130.569 33.1566 131.928 34.4985 133.246C34.6346 133.38 34.8533 133.378 34.9871 133.242C35.1208 133.106 35.1189 132.887 34.9828 132.754C33.674 131.467 32.6058 130.153 31.7953 128.82C30.7759 127.144 29.9291 125.526 29.242 123.964C29.1652 123.79 28.9613 123.71 28.7867 123.787ZM42.821 138.946C42.7266 139.112 42.7844 139.323 42.9502 139.418C45.7377 141.006 48.8949 142.504 52.3688 143.892C52.546 143.963 52.747 143.877 52.8178 143.7C52.8886 143.523 52.8024 143.321 52.6252 143.251C49.1758 141.872 46.0478 140.387 43.2922 138.817C43.1264 138.723 42.9154 138.781 42.821 138.946ZM61.9981 146.857C61.944 147.04 62.0485 147.232 62.2315 147.286C65.4364 148.234 68.817 149.099 72.3462 149.871C72.5326 149.912 72.7167 149.794 72.7575 149.608C72.7983 149.421 72.6803 149.237 72.4939 149.196C68.9799 148.427 65.6154 147.566 62.4274 146.624C62.2444 146.569 62.0522 146.674 61.9981 146.857ZM222.845 112.879C222.837 112.689 222.675 112.541 222.484 112.55L219.378 112.69C219.188 112.699 219.04 112.86 219.049 113.051C219.057 113.241 219.219 113.389 219.409 113.38L221.677 113.278C220.688 114.343 219.678 115.383 218.65 116.4C218.514 116.534 218.512 116.753 218.647 116.888C218.781 117.024 218.999 117.025 219.135 116.891C220.174 115.865 221.193 114.814 222.192 113.739L222.295 116.017C222.304 116.207 222.465 116.355 222.656 116.346C222.847 116.338 222.994 116.176 222.985 115.986L222.845 112.879ZM82.2795 151.383C82.2501 151.572 82.3791 151.749 82.5676 151.778C85.9214 152.301 89.3725 152.743 92.9022 153.097C93.0921 153.116 93.2614 152.978 93.2804 152.788C93.2995 152.598 93.161 152.429 92.9711 152.41C89.4538 152.057 86.0152 151.616 82.6741 151.095C82.4856 151.066 82.3089 151.195 82.2795 151.383ZM211.418 123.348C211.298 123.199 211.08 123.176 210.932 123.296C208.242 125.472 205.454 127.512 202.58 129.423C202.421 129.529 202.378 129.743 202.483 129.902C202.589 130.061 202.804 130.104 202.962 129.999C205.854 128.076 208.66 126.023 211.366 123.833C211.515 123.713 211.538 123.496 211.418 123.348ZM102.956 153.503C102.947 153.694 103.094 153.856 103.285 153.865C106.708 154.03 110.185 154.112 113.699 154.103C113.89 154.103 114.044 153.947 114.044 153.757C114.043 153.566 113.888 153.412 113.697 153.412C110.195 153.421 106.73 153.339 103.318 153.175C103.127 153.166 102.966 153.313 102.956 153.503ZM123.739 153.488C123.749 153.678 123.912 153.825 124.102 153.814C127.548 153.631 131.015 153.358 134.489 152.991C134.678 152.971 134.816 152.801 134.796 152.611C134.776 152.421 134.606 152.284 134.416 152.304C130.954 152.67 127.499 152.942 124.065 153.124C123.875 153.135 123.729 153.297 123.739 153.488ZM194.178 134.913C194.086 134.745 193.876 134.684 193.709 134.775C190.681 136.43 187.58 137.96 184.421 139.373C184.247 139.45 184.169 139.655 184.246 139.829C184.324 140.003 184.529 140.081 184.703 140.003C187.878 138.584 190.995 137.045 194.04 135.382C194.208 135.29 194.269 135.08 194.178 134.913ZM144.41 151.331C144.441 151.519 144.618 151.648 144.806 151.617C148.227 151.066 151.641 150.417 155.036 149.666C155.222 149.625 155.34 149.44 155.299 149.254C155.257 149.068 155.073 148.95 154.887 148.991C151.505 149.739 148.104 150.386 144.696 150.935C144.508 150.965 144.38 151.143 144.41 151.331ZM175.249 143.455C175.184 143.276 174.986 143.183 174.807 143.248C171.559 144.423 168.266 145.486 164.94 146.441C164.757 146.494 164.651 146.685 164.704 146.869C164.757 147.052 164.948 147.158 165.131 147.105C168.471 146.146 171.779 145.078 175.042 143.898C175.221 143.833 175.314 143.635 175.249 143.455Z" fill="#1E1E1E"/>
</svg>
