<svg width="130" height="122" viewBox="0 0 130 122" fill="none" xmlns="http://www.w3.org/2000/svg">
<path fill-rule="evenodd" clip-rule="evenodd" d="M78.0001 0.769684C76.8236 0.769684 75.6628 0.778366 74.5176 0.79554C74.3904 0.797448 74.2889 0.902101 74.2908 1.02929C74.2927 1.15648 74.3973 1.25804 74.5245 1.25613C75.6674 1.23899 76.8258 1.23033 78.0001 1.23033V0.769684ZM67.919 1.22542C67.913 1.09836 67.8051 1.00023 67.6781 1.00624C65.3296 1.11729 63.0531 1.26655 60.8472 1.45206C60.7204 1.46272 60.6263 1.57412 60.637 1.70087C60.6476 1.82763 60.759 1.92174 60.8858 1.91109C63.0859 1.72606 65.3568 1.57717 67.6998 1.46637C67.8269 1.46036 67.925 1.35249 67.919 1.22542ZM54.2909 2.36585C54.2749 2.23966 54.1596 2.15031 54.0334 2.1663C51.6854 2.46369 49.4269 2.80564 47.2556 3.18927C47.1304 3.2114 47.0468 3.33089 47.0689 3.45615C47.091 3.58142 47.2105 3.66502 47.3358 3.64289C49.4993 3.26062 51.7504 2.91979 54.0913 2.62329C54.2175 2.60731 54.3068 2.49205 54.2909 2.36585ZM40.8239 4.74C40.7946 4.61621 40.6705 4.53961 40.5467 4.5689C38.2371 5.11546 36.042 5.71422 33.9577 6.36069C33.8362 6.39837 33.7683 6.52741 33.806 6.64891C33.8437 6.7704 33.9727 6.83834 34.0942 6.80066C36.1679 6.15745 38.3529 5.56142 40.6528 5.01717C40.7766 4.98787 40.8532 4.86378 40.8239 4.74ZM27.7752 8.7892C27.7276 8.67127 27.5933 8.61434 27.4754 8.66203C25.2511 9.56154 23.1821 10.5233 21.262 11.5394C21.1496 11.5989 21.1067 11.7382 21.1662 11.8507C21.2257 11.9631 21.365 12.006 21.4775 11.9465C23.3829 10.9382 25.4376 9.98304 27.6481 9.08907C27.766 9.04138 27.8229 8.90712 27.7752 8.7892ZM15.7124 15.1812C15.639 15.0773 15.4953 15.0526 15.3914 15.126C13.4152 16.5216 11.6564 17.9872 10.103 19.5077C10.0121 19.5967 10.0105 19.7425 10.0995 19.8334C10.1884 19.9243 10.3343 19.9259 10.4252 19.8369C11.9601 18.3345 13.6999 16.8845 15.6571 15.5022C15.761 15.4289 15.7858 15.2851 15.7124 15.1812ZM5.99014 24.6978C5.88518 24.626 5.74184 24.6528 5.66998 24.7578C4.31786 26.7329 3.25051 28.7639 2.44621 30.8235C2.39993 30.942 2.45847 31.0756 2.57697 31.1218C2.69545 31.1681 2.82902 31.1096 2.87529 30.9911C3.66662 28.9647 4.71741 26.9647 6.05009 25.018C6.12195 24.913 6.09511 24.7697 5.99014 24.6978ZM0.999496 37.2953C0.873306 37.2792 0.757965 37.3684 0.741867 37.4946C0.447418 39.8024 0.44577 42.1077 0.70668 44.3735C0.721237 44.4999 0.83548 44.5905 0.961838 44.576C1.08821 44.5614 1.17886 44.4472 1.16431 44.3208C0.907501 42.0906 0.909218 39.8225 1.19882 37.5529C1.21492 37.4267 1.12567 37.3114 0.999496 37.2953ZM2.40802 50.7807C2.2881 50.8231 2.22527 50.9548 2.2677 51.0747C3.03162 53.2341 4.02993 55.3158 5.23194 57.2825C5.29828 57.3911 5.44004 57.4253 5.54858 57.3589C5.65712 57.2926 5.69133 57.1508 5.62499 57.0423C4.43918 55.1021 3.45487 53.0493 2.70197 50.921C2.65955 50.8011 2.52794 50.7383 2.40802 50.7807ZM28.2363 59.4767C26.2786 59.2165 24.0965 59.363 21.8519 59.9274C21.7285 59.9584 21.6536 60.0836 21.6847 60.207C21.7157 60.3303 21.8408 60.4052 21.9642 60.3742C24.1601 59.822 26.2832 59.6818 28.1756 59.9334C28.3017 59.9501 28.4175 59.8615 28.4342 59.7354C28.451 59.6093 28.3624 59.4935 28.2363 59.4767ZM33.702 62.1438C33.6106 62.2324 33.6084 62.3782 33.6969 62.4695C34.3983 63.1929 34.9393 64.0616 35.2819 65.0739C35.7981 66.5989 35.8916 67.7736 35.6801 68.6619C35.6506 68.7857 35.7271 68.9099 35.8508 68.9393C35.9745 68.9688 36.0987 68.8924 36.1282 68.7686C36.3673 67.7643 36.2495 66.4956 35.7183 64.9262C35.3535 63.8485 34.7761 62.9208 34.0277 62.1489C33.9391 62.0575 33.7933 62.0553 33.702 62.1438ZM16.2601 62.4467C16.196 62.3368 16.055 62.2996 15.9451 62.3637C14.6975 63.0912 13.4727 63.9529 12.2984 64.9515C12.247 64.9093 12.1984 64.868 12.1528 64.8276C11.3036 64.0752 10.4925 63.2817 9.72337 62.4515C9.63692 62.3582 9.4912 62.3526 9.39788 62.4391C9.30457 62.5255 9.29902 62.6713 9.38547 62.7646C10.1649 63.6058 10.9867 64.4099 11.8474 65.1724C11.8789 65.2003 11.9116 65.2286 11.9455 65.2571C11.5836 65.5763 11.2269 65.9086 10.8762 66.2544C10.7856 66.3437 10.7846 66.4895 10.8739 66.5801C10.9632 66.6707 11.109 66.6717 11.1996 66.5824C11.5649 66.2223 11.9368 65.8769 12.3143 65.5463C12.9859 66.041 13.9485 66.6076 15.0964 67.1905C15.2098 67.2481 15.3484 67.2029 15.406 67.0895C15.4636 66.976 15.4184 66.8374 15.305 66.7798C14.2106 66.2241 13.3073 65.6936 12.6732 65.2378C13.8033 64.2843 14.9799 63.4598 16.1771 62.7617C16.287 62.6976 16.3241 62.5566 16.2601 62.4467ZM21.9717 69.7687C21.9325 69.8897 21.9989 70.0196 22.1199 70.0588C24.6418 70.8758 27.2615 71.4998 29.5449 71.677C29.6717 71.6868 29.7825 71.592 29.7923 71.4652C29.8022 71.3383 29.7073 71.2275 29.5805 71.2177C27.3468 71.0444 24.765 70.4315 22.2618 69.6206C22.1408 69.5814 22.0109 69.6477 21.9717 69.7687ZM7.20518 71.1682C7.09738 71.1007 6.95525 71.1333 6.88773 71.2411C5.81087 72.9602 4.86794 74.8719 4.10311 76.9803C4.05974 77.0999 4.12151 77.232 4.24109 77.2754C4.36066 77.3188 4.49277 77.257 4.53615 77.1374C5.28997 75.0593 6.21867 73.177 7.27811 71.4857C7.34563 71.3779 7.31298 71.2357 7.20518 71.1682ZM2.76594 82.976C2.64043 82.9553 2.52188 83.0402 2.50113 83.1657C2.17278 85.1519 1.98583 87.2676 1.96319 89.5149C1.96191 89.6421 2.06398 89.7463 2.19118 89.7476C2.31837 89.7488 2.42253 89.6468 2.42381 89.5196C2.44623 87.2949 2.63126 85.2028 2.9556 83.2408C2.97636 83.1153 2.89143 82.9968 2.76594 82.976ZM129.23 94.4912C129.225 94.3641 129.118 94.265 128.991 94.2699L126.92 94.3495C126.793 94.3544 126.694 94.4614 126.699 94.5885C126.703 94.7156 126.81 94.8147 126.938 94.8098L128.45 94.7517C127.774 95.4681 127.081 96.1685 126.372 96.8531C126.28 96.9414 126.278 97.0872 126.366 97.1787C126.455 97.2703 126.6 97.2728 126.692 97.1845C127.408 96.4929 128.109 95.7851 128.791 95.061L128.85 96.5802C128.854 96.7073 128.961 96.8064 129.089 96.8015C129.216 96.7966 129.315 96.6896 129.31 96.5625L129.23 94.4912ZM2.51698 95.6229C2.39063 95.6376 2.30018 95.752 2.31493 95.8783C2.43534 96.9089 2.58752 97.9625 2.77312 99.0391C2.97578 100.215 3.33141 101.353 3.82876 102.451C3.88123 102.567 4.0177 102.619 4.13358 102.566C4.24946 102.514 4.30086 102.377 4.24838 102.261C3.76646 101.197 3.4228 100.096 3.22707 98.9609C3.04285 97.8923 2.89188 96.847 2.77247 95.8249C2.75771 95.6986 2.64332 95.6081 2.51698 95.6229ZM121.385 101.496C121.307 101.396 121.162 101.378 121.062 101.456C119.223 102.89 117.304 104.239 115.317 105.505C115.21 105.573 115.178 105.715 115.247 105.823C115.315 105.93 115.457 105.961 115.565 105.893C117.563 104.62 119.494 103.263 121.345 101.819C121.445 101.741 121.463 101.596 121.385 101.496ZM8.02875 107.858C7.94103 107.951 7.9446 108.096 8.03673 108.184C9.63434 109.705 11.5474 111.112 13.7292 112.395C13.8388 112.46 13.98 112.423 14.0445 112.314C14.109 112.204 14.0724 112.063 13.9628 111.998C11.8057 110.729 9.92214 109.343 8.35437 107.85C8.26225 107.763 8.11646 107.766 8.02875 107.858ZM109.533 109.119C109.474 109.007 109.335 108.963 109.222 109.022C107.155 110.102 105.032 111.103 102.865 112.03C102.748 112.08 102.694 112.215 102.744 112.332C102.794 112.449 102.929 112.503 103.046 112.453C105.224 111.523 107.357 110.516 109.436 109.43C109.548 109.371 109.592 109.232 109.533 109.119ZM96.5918 114.706C96.5501 114.585 96.4189 114.522 96.2987 114.563C94.087 115.33 91.8421 116.025 89.574 116.651C89.4514 116.685 89.3794 116.812 89.4133 116.935C89.4471 117.057 89.574 117.129 89.6966 117.095C91.9738 116.467 94.2282 115.769 96.4496 114.999C96.5698 114.957 96.6334 114.826 96.5918 114.706ZM19.9715 115.201C19.9238 115.319 19.9807 115.453 20.0985 115.501C22.1935 116.349 24.4359 117.115 26.8029 117.795C26.9251 117.83 27.0527 117.759 27.0878 117.637C27.1229 117.515 27.0522 117.387 26.93 117.352C24.577 116.676 22.35 115.915 20.2715 115.074C20.1536 115.026 20.0193 115.083 19.9715 115.201ZM83.0067 118.496C82.9802 118.371 82.8579 118.292 82.7335 118.318C80.4343 118.807 78.1219 119.228 75.8065 119.585C75.6807 119.604 75.5945 119.722 75.6139 119.847C75.6332 119.973 75.7508 120.059 75.8765 120.04C78.2004 119.682 80.5213 119.259 82.8293 118.769C82.9537 118.742 83.0331 118.62 83.0067 118.496ZM33.4816 119.181C33.4566 119.306 33.5375 119.427 33.6623 119.452C35.9167 119.903 38.2508 120.284 40.6492 120.593C40.7754 120.609 40.8909 120.52 40.9071 120.394C40.9234 120.268 40.8343 120.153 40.7081 120.136C38.3197 119.829 35.9961 119.449 33.7526 119C33.6279 118.975 33.5065 119.056 33.4816 119.181ZM69.0716 120.672C69.0592 120.545 68.9464 120.453 68.8199 120.465C66.4662 120.697 64.1197 120.863 61.7909 120.966C61.6638 120.972 61.5653 121.08 61.571 121.207C61.5766 121.334 61.6842 121.432 61.8112 121.427C64.1483 121.323 66.503 121.156 68.865 120.923C68.9916 120.911 69.0841 120.798 69.0716 120.672ZM47.4653 121.032C47.4568 121.159 47.5528 121.269 47.6797 121.278C49.9978 121.433 52.3588 121.524 54.7506 121.548C54.8778 121.549 54.982 121.447 54.9833 121.32C54.9846 121.193 54.8825 121.089 54.7553 121.087C52.3721 121.063 50.0198 120.973 47.7105 120.818C47.5836 120.809 47.4738 120.905 47.4653 121.032Z" fill="#1E1E1E"/>
</svg>
